<svg xmlns="http://www.w3.org/2000/svg" xmlns:xlink="http://www.w3.org/1999/xlink" width="30" height="30" viewBox="0 0 30 30"><defs><path id="a" d="M1006 3958.999c0 .65-.419 1.2-1 1.407v1.683a1.496 1.496 0 11-1.908 1.909h-1.684c-.207.58-.756 1-1.408 1-.652 0-1.202-.42-1.408-1h-1.684c-.207.58-.756 1-1.408 1-.652 0-1.202-.42-1.408-1h-1.684c-.207.58-.756 1-1.408 1-.652 0-1.202-.42-1.408-1h-1.684c-.206.58-.756 1-1.408 1-.652 0-1.202-.42-1.408-1h-1.684c-.206.58-.756 1-1.408 1-.652 0-1.202-.42-1.408-1h-1.684c-.207.58-.756 1-1.408 1a1.496 1.496 0 11-.5-2.91v-1.682c-.581-.207-1-.756-1-1.407 0-.654.419-1.202 1-1.41v-1.682c-.581-.208-1-.757-1-1.409 0-.651.419-1.201 1-1.408v-1.684c-.581-.206-1-.755-1-1.407s.419-1.202 1-1.41v-1.683c-.581-.206-1-.755-1-1.408 0-.652.419-1.202 1-1.407v-1.685c-.581-.207-1-.756-1-1.408 0-.652.419-1.202 1-1.408v-1.685c-.581-.205-1-.755-1-1.407a1.495 1.495 0 012.908-.5h1.684c.206-.582.756-1 1.408-1 .652 0 1.201.418 1.408 1h1.684c.206-.582.756-1 1.408-1 .652 0 1.202.418 1.408 1h1.684c.206-.582.756-1 1.408-1 .652 0 1.201.418 1.408 1h1.684c.206-.582.756-1 1.408-1 .652 0 1.201.418 1.408 1h1.684c.206-.582.756-1 1.408-1 .652 0 1.201.418 1.408 1h1.684c.206-.582.756-1 1.408-1a1.5 1.5 0 011.5 1.5c0 .652-.419 1.202-1 1.407v1.685c.581.206 1 .756 1 1.408 0 .652-.419 1.201-1 1.408v1.685c.581.205 1 .755 1 1.407 0 .653-.419 1.202-1 1.408v1.683a1.5 1.5 0 011 1.41c0 .652-.419 1.201-1 1.407v1.684c.581.207 1 .757 1 1.408a1.5 1.5 0 01-1 1.409v1.683c.581.207 1 .755 1 1.409zm-4-20.002h-22v22.001h22zm-13 16l7-8.498 4.5 7v6h-19l6-6zm-3-6.999a3 3 0 110-6 3 3 0 010 6z"/></defs><use fill="#95e1d3" xlink:href="#a" transform="translate(-976 -3935)"/></svg>