<svg xmlns="http://www.w3.org/2000/svg" xmlns:xlink="http://www.w3.org/1999/xlink" width="32" height="32" viewBox="0 0 32 32"><defs><path id="a" d="M821.5 2341h-29a1.5 1.5 0 01-1.5-1.5v-29a1.5 1.5 0 011.5-1.5h29a1.5 1.5 0 011.5 1.5v29a1.5 1.5 0 01-1.5 1.5zm-1.5-29h-26v26h26zm-23.785 13.239v-.002l4-2.5v.002a1.49 1.49 0 01.785-.222c.311 0 .6.095.84.258l.006-.01 6.63 4.42 7.639-5.39a1.5 1.5 0 011.764 2.426l-8.5 6a1.493 1.493 0 01-1.74.012l-6.657-4.438-3.135 1.96a1.5 1.5 0 01-1.631-2.517z"/></defs><use fill="#95e1d3" xlink:href="#a" transform="translate(-791 -2309)"/></svg>